<?xml version="1.0" encoding="UTF-8" standalone="no"?>
<!DOCTYPE svg PUBLIC "-//W3C//DTD SVG 1.1//EN" "http://www.w3.org/Graphics/SVG/1.1/DTD/svg11.dtd">
<svg width="100%" height="100%" viewBox="0 0 307 307" version="1.1" xmlns="http://www.w3.org/2000/svg" xmlns:xlink="http://www.w3.org/1999/xlink" xml:space="preserve" xmlns:serif="http://www.serif.com/" style="fill-rule:evenodd;clip-rule:evenodd;stroke-linejoin:round;stroke-miterlimit:2;">
    <g transform="matrix(2.46889,0,0,2.46889,5.60401,5.64911)">
        <g id="SvgjsG10256">
            <path d="M43.695,27.497C38.573,27.497 34.38,31.763 34.38,36.886C34.38,41.006 37.086,44.492 40.815,45.716L40.815,73.96C37.085,75.193 34.38,78.743 34.38,82.864C34.38,87.987 38.573,92.179 43.695,92.179C48.818,92.179 53.047,87.987 53.047,82.864C53.047,78.743 50.306,75.193 46.575,73.96L46.575,73.511C46.575,69.253 47.879,67.578 50.279,66.067C52.68,64.555 56.451,63.621 60.529,62.624C64.609,61.628 69.026,60.539 72.688,57.799C76.015,55.31 78.414,51.285 78.824,45.753C82.587,44.551 85.37,41.032 85.37,36.886C85.37,31.763 81.14,27.497 76.018,27.497C70.895,27.497 66.703,31.763 66.703,36.886C66.703,40.981 69.406,44.472 73.099,45.716C72.796,49.653 71.366,51.65 69.247,53.235C66.848,55.03 63.184,56.072 59.184,57.05C55.182,58.028 50.872,58.899 47.212,61.203C46.992,61.342 46.789,61.5 46.575,61.652L46.575,45.716C50.305,44.492 53.047,41.006 53.047,36.886C53.047,31.763 48.818,27.497 43.695,27.497ZM43.695,33.257C45.712,33.257 47.324,34.869 47.324,36.886C47.324,38.904 45.712,40.44 43.695,40.44C41.678,40.44 40.104,38.904 40.104,36.886C40.104,34.869 41.678,33.257 43.695,33.257ZM76.018,33.257C78.035,33.257 79.646,34.869 79.646,36.886C79.646,38.904 78.035,40.44 76.018,40.44C74,40.44 72.426,38.904 72.426,36.886C72.426,34.869 74,33.257 76.018,33.257ZM29.404,36.101C29.303,36.107 29.203,36.12 29.105,36.139C28.536,36.211 28.008,36.475 27.608,36.886L6.51,58.024C5.546,59.003 5.546,60.598 6.51,61.578L27.608,82.676C28.089,83.243 28.796,83.57 29.54,83.57C30.93,83.57 32.073,82.427 32.073,81.037C32.073,80.303 31.754,79.604 31.2,79.123L11.897,59.819L31.2,40.477C31.707,39.999 31.996,39.331 31.996,38.633C31.996,37.244 30.852,36.1 29.462,36.1C29.443,36.1 29.423,36.1 29.404,36.101ZM90.084,36.287C88.772,36.389 87.747,37.497 87.747,38.813C87.747,39.496 88.024,40.151 88.513,40.628L107.816,59.969L88.513,79.273C88.037,79.749 87.769,80.395 87.769,81.068C87.769,82.461 88.916,83.608 90.309,83.608C90.982,83.608 91.629,83.34 92.105,82.864L113.203,61.726C114.166,60.747 114.166,59.153 113.203,58.173L92.105,37.074C91.701,36.64 91.158,36.362 90.57,36.287C90.408,36.272 90.246,36.272 90.084,36.287ZM43.695,79.236C45.712,79.236 47.324,80.846 47.324,82.864C47.324,84.881 45.712,86.418 43.695,86.418C41.678,86.418 40.104,84.881 40.104,82.864C40.104,80.846 41.678,79.236 43.695,79.236Z" style="fill:rgb(36,128,103);fill-rule:nonzero;"/>
        </g>
    </g>
</svg>
