<?xml version="1.0" encoding="UTF-8" standalone="no"?>
<!DOCTYPE svg PUBLIC "-//W3C//DTD SVG 1.1//EN" "http://www.w3.org/Graphics/SVG/1.1/DTD/svg11.dtd">
<svg width="100%" height="100%" viewBox="0 0 200 200" version="1.1" xmlns="http://www.w3.org/2000/svg" xmlns:xlink="http://www.w3.org/1999/xlink" xml:space="preserve" xmlns:serif="http://www.serif.com/" style="fill-rule:evenodd;clip-rule:evenodd;stroke-linejoin:round;stroke-miterlimit:2;">
    <g transform="matrix(1.05845,0,0,1,-9.0076,0)">
        <g id="图层1">
            <rect x="54.147" y="138.736" width="144.705" height="40.236" style="fill:url(#_Linear1);"/>
        </g>
    </g>
    <g id="pen" transform="matrix(1,0,0,1,-7.93518,0.00510055)">
        <path d="M127.656,23.867L49.727,101.797L40.371,129.844L22.441,147.773L56.738,175.82L71.543,161.016L99.59,151.66L177.52,73.73L127.656,23.867Z" style="fill:rgb(193,216,64);fill-rule:nonzero;"/>
        <path d="M90.742,77.539C90.176,77.539 89.609,77.324 89.18,76.895C88.32,76.035 88.32,74.629 89.18,73.77L120.352,42.598C121.211,41.738 122.617,41.738 123.477,42.598C124.336,43.457 124.336,44.863 123.477,45.723L92.285,76.895C91.855,77.324 91.309,77.539 90.742,77.539Z" style="fill:white;fill-rule:nonzero;"/>
        <path d="M126.855,37.012C126.855,38.222 127.852,39.219 129.063,39.219C130.273,39.219 131.27,38.222 131.27,37.012C131.27,35.801 130.273,34.805 129.063,34.805C127.852,34.805 126.855,35.801 126.855,37.012Z" style="fill:white;fill-rule:nonzero;"/>
        <path d="M166.504,62.715L88.574,140.645L60.527,150L44.609,165.898L56.738,175.82L71.543,161.016L99.59,151.66L177.52,73.73L166.504,62.715Z" style="fill:rgb(136,154,32);fill-rule:nonzero;"/>
        <path d="M179.863,71.387C178.574,70.098 176.484,70.098 175.195,71.387L99.609,146.973L76.992,124.395L54.395,101.797L129.98,26.211C131.27,24.922 131.27,22.832 129.98,21.543C128.691,20.254 126.602,20.254 125.313,21.543L47.383,99.473C47.227,99.629 47.07,99.805 46.953,100C46.953,100 46.934,100.02 46.934,100.039C46.797,100.254 46.699,100.469 46.621,100.703C46.621,100.723 46.602,100.742 46.582,100.781L37.48,128.086L20.117,145.43C19.453,146.094 19.102,146.992 19.16,147.93C19.199,148.867 19.648,149.727 20.371,150.332L54.668,178.379C55.273,178.887 56.016,179.121 56.758,179.121C57.617,179.121 58.457,178.789 59.102,178.145L73.359,163.887L100.664,154.785C100.703,154.766 100.723,154.746 100.742,154.746C100.957,154.668 101.152,154.57 101.348,154.453C101.367,154.434 101.406,154.434 101.426,154.414C101.621,154.297 101.777,154.16 101.953,153.984L179.883,76.055C181.152,74.785 181.152,72.695 179.863,71.387ZM56.523,171.367L27.363,147.52L40.371,134.512L66.875,161.016L56.523,171.367ZM72.441,157.227L44.16,128.945L51.172,107.91L93.477,150.215L72.441,157.227Z" style="fill:rgb(45,55,66);fill-rule:nonzero;"/>
    </g>
    <defs>
        <linearGradient id="_Linear1" x1="0" y1="0" x2="1" y2="0" gradientUnits="userSpaceOnUse" gradientTransform="matrix(144.705,0,0,40.2358,54.1475,158.854)"><stop offset="0" style="stop-color:rgb(149,216,93);stop-opacity:0.4"/><stop offset="1" style="stop-color:rgb(149,216,93);stop-opacity:0"/></linearGradient>
    </defs>
</svg>
